# xmcd
#
# Track frame offsets:
#	150
#	14407
#	27429
#	41767
#	54067
#	67127
#	82285
#	95487
#	107967
#	119359
#	131139
#	143630
#	155890
#	169235
#	183061
#	195580
#	209546
#	225529
#	237672
#	250254
#	261798
#	273471
#	287793
#
# Disc length: 4010 seconds
#
# Revision: 1
# Processed by: cddbd v1.5.2PL0 Copyright (c) Steve Scherf et al.
# Submitted via: audiograbber 1.83.01
#
DISCID=600fa817
DTITLE=The Carter Family - The Best Of The Carter Family
DYEAR=2002
DGENRE=Country
TTITLE0=I'm Thinking Tonight Of My Blue Eyes
TTITLE1=Keep On The Sunny Side
TTITLE2=Wildwood Flower
TTITLE3=Worried Man Blues
TTITLE4=John Hardy Was A Desperate Little Man
TTITLE5=The Wandering Boy
TTITLE6=Wabash Cannon Ball
TTITLE7=Single Girl, Married Girl
TTITLE8=Lonesome Homesick Blues
TTITLE9=River Of Jordan
TTITLE10=Something Got Hold Of Me
TTITLE11=Waves On The Sea
TTITLE12=Rambling Boy
TTITLE13=Keep On The Firing Line
TTITLE14=Darling Daisies
TTITLE15=Lover's Return
TTITLE16=Hello Central Give Me Heaven
TTITLE17=I'm Working On A Building
TTITLE18=There'll Be Joy, Joy, Joy
TTITLE19=On A Hill Lone And Grey
TTITLE20=It's A Long Long Road I Travel Alone
TTITLE21=The Sea Of Galilee
TTITLE22=The Dying Mother
EXTD=
EXTT0=
EXTT1=
EXTT2=
EXTT3=
EXTT4=
EXTT5=
EXTT6=
EXTT7=
EXTT8=
EXTT9=
EXTT10=
EXTT11=
EXTT12=
EXTT13=
EXTT14=
EXTT15=
EXTT16=
EXTT17=
EXTT18=
EXTT19=
EXTT20=
EXTT21=
EXTT22=
PLAYORDER=
